<svg width="181" height="181" viewBox="0 0 181 181" fill="none" xmlns="http://www.w3.org/2000/svg">
<path d="M75.8321 156.298L82.8388 121.265C82.8941 120.988 82.9218 120.85 82.8468 120.758C82.7718 120.667 82.6307 120.667 82.3485 120.667H61.2165C60.825 120.667 60.6292 120.667 60.5574 120.54C60.4856 120.413 60.5863 120.245 60.7878 119.909L82.5041 83.7156C82.7055 83.3798 82.8062 83.212 82.7344 83.0852C82.6626 82.9583 82.4668 82.9583 82.0753 82.9583H53.5132C53.1855 82.9583 53.0216 82.9583 52.947 82.8507C52.8724 82.7431 52.93 82.5897 53.0451 82.2828L75.2951 22.9494C75.3539 22.7925 75.3834 22.714 75.4476 22.6695C75.5118 22.625 75.5956 22.625 75.7632 22.625H119.784C120.175 22.625 120.371 22.625 120.443 22.7518C120.515 22.8786 120.414 23.0465 120.212 23.3822L120.212 23.3822L98.4961 59.5761C98.2947 59.9118 98.1939 60.0797 98.2657 60.2065C98.3376 60.3333 98.5333 60.3333 98.9248 60.3333H119.667C120.103 60.3333 120.321 60.3333 120.39 60.4715C120.459 60.6097 120.329 60.7843 120.067 61.1333L98.6417 89.7C98.3799 90.0491 98.249 90.2236 98.3181 90.3618C98.3872 90.5 98.6054 90.5 99.0417 90.5H127.186C127.631 90.5 127.853 90.5 127.922 90.6402C127.99 90.7803 127.854 90.9559 127.581 91.307L76.7171 156.703C76.2027 157.365 75.9454 157.695 75.7655 157.613C75.5856 157.531 75.6678 157.12 75.8321 156.298Z" fill="#FFF066"/>
<path d="M139.521 30.1667L128.208 45.2501H143.292L131.979 60.3334" stroke="#FFF066" stroke-width="4" stroke-linecap="round" stroke-linejoin="round"/>
<path d="M49.0208 120.667L37.7083 135.75H52.7916L41.4791 150.833" stroke="#FFF066" stroke-width="4" stroke-linecap="round" stroke-linejoin="round"/>
</svg>
