<svg width="176" height="176" viewBox="0 0 176 176" fill="none" xmlns="http://www.w3.org/2000/svg">
<path fill-rule="evenodd" clip-rule="evenodd" d="M84.4379 37.9185C86.4918 36.1727 89.5082 36.1727 91.5621 37.9185L110 53.5907V48.1249C110 44.328 113.078 41.2499 116.875 41.2499C120.672 41.2499 123.75 44.328 123.75 48.1249V65.2782L139.081 78.3092C142.98 81.6236 140.636 87.9999 135.519 87.9999H101.75C100.231 87.9999 99 86.7687 99 85.2499C99 83.7311 100.231 82.4999 101.75 82.4999L135.519 82.4999L88 42.1091L40.4814 82.4999H74.25C75.7688 82.4999 77 83.7311 77 85.2499C77 86.7687 75.7688 87.9999 74.25 87.9999L52.25 87.9999L40.4814 87.9999C35.3639 87.9999 33.0202 81.6236 36.9194 78.3093L84.4379 37.9185ZM118.25 60.6032V48.1249C118.25 47.3655 117.634 46.7499 116.875 46.7499C116.116 46.7499 115.5 47.3655 115.5 48.1249V58.2657L118.25 60.6032Z" fill="black"/>
<path fill-rule="evenodd" clip-rule="evenodd" d="M52.25 87.9999L52.2501 129.25C52.2501 130.769 53.4813 132 55.0001 132H60.5V104.5C60.5 99.9436 64.1936 96.2499 68.75 96.2499H79.75C84.3064 96.2499 88 99.9436 88 104.5V132H121C122.519 132 123.75 130.769 123.75 129.25V87.9999H129.25V129.25C129.25 130.214 129.085 131.14 128.781 132H143C144.519 132 145.75 133.231 145.75 134.75C145.75 136.269 144.519 137.5 143 137.5H122.375C122.204 137.5 122.036 137.484 121.873 137.454C121.586 137.484 121.295 137.5 121 137.5H55.0001C50.4438 137.5 46.7501 133.806 46.7501 129.25L46.75 87.9999L52.25 87.9999ZM74.25 118.25C74.25 116.731 75.4812 115.5 77 115.5H82.5V104.5C82.5 102.981 81.2688 101.75 79.75 101.75H68.75C67.2312 101.75 66 102.981 66 104.5V132H82.5V121H77C75.4812 121 74.25 119.769 74.25 118.25Z" fill="black"/>
<path d="M28.875 132C27.3562 132 26.125 133.231 26.125 134.75C26.125 136.269 27.3562 137.5 28.875 137.5H38.5C40.0188 137.5 41.25 136.269 41.25 134.75C41.25 133.231 40.0188 132 38.5 132H28.875Z" fill="black"/>
<path fill-rule="evenodd" clip-rule="evenodd" d="M93.5 104.5C93.5 99.9436 97.1936 96.2499 101.75 96.2499H110C114.556 96.2499 118.25 99.9436 118.25 104.5V118.25C118.25 122.806 114.556 126.5 110 126.5H101.75C97.1936 126.5 93.5 122.806 93.5 118.25V104.5ZM101.75 101.75C100.231 101.75 99 102.981 99 104.5V118.25C99 119.769 100.231 121 101.75 121H110C111.519 121 112.75 119.769 112.75 118.25V104.5C112.75 102.981 111.519 101.75 110 101.75H101.75Z" fill="black"/>
<path fill-rule="evenodd" clip-rule="evenodd" d="M88 54.9999C81.9249 54.9999 77 59.9248 77 65.9999C77 72.0751 81.9249 76.9999 88 76.9999C94.0751 76.9999 99 72.0751 99 65.9999C99 59.9248 94.0751 54.9999 88 54.9999ZM82.5 65.9999C82.5 62.9624 84.9624 60.4999 88 60.4999C91.0376 60.4999 93.5 62.9624 93.5 65.9999C93.5 69.0375 91.0376 71.4999 88 71.4999C84.9624 71.4999 82.5 69.0375 82.5 65.9999Z" fill="black"/>
</svg>
