<svg width="177" height="177" viewBox="0 0 177 177" fill="none" xmlns="http://www.w3.org/2000/svg">
<path d="M96.7181 32.215C97.3814 29.4964 99.6638 27.6562 102.195 27.6562C105.186 27.6562 107.859 30.2581 107.859 33.7823C107.859 36.1172 106.66 38.0924 104.97 39.1235C103.666 39.9191 103.254 41.621 104.049 42.9249C104.845 44.2288 106.547 44.6408 107.851 43.8452C111.2 41.8015 113.391 38.0297 113.391 33.7823C113.391 27.485 108.516 22.125 102.195 22.125C96.8711 22.125 92.5527 25.9523 91.3445 30.9038C90.9824 32.3876 91.8918 33.8841 93.3757 34.2462C94.8595 34.6082 96.356 33.6988 96.7181 32.215Z" fill="black"/>
<path fill-rule="evenodd" clip-rule="evenodd" d="M71.9062 52.5469C71.9062 44.9098 78.0973 38.7188 85.7344 38.7188C93.3714 38.7188 99.5625 44.9098 99.5625 52.5469C99.5625 60.1839 93.3714 66.375 85.7344 66.375C78.0973 66.375 71.9062 60.1839 71.9062 52.5469ZM85.7344 44.25C81.1521 44.25 77.4375 47.9646 77.4375 52.5469C77.4375 57.1291 81.1521 60.8438 85.7344 60.8438C90.3166 60.8438 94.0312 57.1291 94.0312 52.5469C94.0312 47.9646 90.3166 44.25 85.7344 44.25Z" fill="black"/>
<path d="M88.5 85.7344C83.8918 85.7344 79.4657 86.2881 75.3338 87.3066C73.8508 87.6722 72.3522 86.7664 71.9866 85.2833C71.6211 83.8003 72.5269 82.3017 74.0099 81.9362C78.5792 80.8098 83.45 80.2031 88.5 80.2031C93.55 80.2031 98.4208 80.8098 102.99 81.9362C104.473 82.3017 105.379 83.8003 105.013 85.2833C104.648 86.7664 103.149 87.6722 101.666 87.3066C97.5343 86.2881 93.1082 85.7344 88.5 85.7344Z" fill="black"/>
<path fill-rule="evenodd" clip-rule="evenodd" d="M113.391 94.0312C108.808 94.0312 105.094 97.7459 105.094 102.328C105.094 106.91 108.808 110.625 113.391 110.625C117.973 110.625 121.688 106.91 121.688 102.328C121.688 97.7459 117.973 94.0312 113.391 94.0312ZM110.625 102.328C110.625 100.801 111.863 99.5625 113.391 99.5625C114.918 99.5625 116.156 100.801 116.156 102.328C116.156 103.856 114.918 105.094 113.391 105.094C111.863 105.094 110.625 103.856 110.625 102.328Z" fill="black"/>
<path fill-rule="evenodd" clip-rule="evenodd" d="M120.343 73.7758C121.697 66.1044 112.687 60.9648 106.773 66.0344L99.1455 72.5721C99.0652 72.6409 98.9898 72.7133 98.9194 72.7889C95.5624 72.2104 92.0744 71.9062 88.5 71.9062C75.7402 71.9062 64.0819 75.7817 55.5511 82.1798C50.2637 86.1453 46.1272 91.1295 43.7458 96.7818C39.3984 96.5212 38.7188 94.0312 38.7188 91.2656C38.7188 88.5 42.4334 82.9688 47.0156 82.9688C48.543 82.9688 49.7812 81.7305 49.7812 80.2031C49.7812 78.6757 48.543 77.4375 47.0156 77.4375C39.3786 77.4375 33.1875 83.6286 33.1875 91.2656C33.1875 96.7818 35.4678 101.111 42.0683 102.157C41.6848 104.008 41.4844 105.912 41.4844 107.859C41.4844 118.09 47.0196 127.14 55.5511 133.539C55.9265 133.821 56.308 134.097 56.6953 134.369V141.047C56.6953 145.629 60.41 149.344 64.9922 149.344H69.5442C72.9369 149.344 75.9877 147.278 77.2477 144.128L77.7502 142.872C81.2085 143.488 84.8082 143.812 88.5 143.812C92.1918 143.812 95.7915 143.488 99.2498 142.872L99.7523 144.128C101.012 147.278 104.063 149.344 107.456 149.344H112.008C116.59 149.344 120.305 145.629 120.305 141.047V134.369C120.692 134.097 121.073 133.821 121.449 133.539C126.63 129.653 130.705 124.79 133.108 119.278L137.965 121.221C143.415 123.401 149.344 119.387 149.344 113.518V107.732C149.344 101.863 143.415 97.8489 137.965 100.029L134.744 101.317C132.945 93.7887 128.11 87.1758 121.449 82.1798C120.704 81.6214 119.936 81.0822 119.145 80.5631L120.343 73.7758ZM114.043 77.6485L114.896 72.8145C115.347 70.2574 112.344 68.5442 110.372 70.2341L105.579 74.3425C108.556 75.2269 111.39 76.3373 114.043 77.6485ZM135.502 106.972C135.511 107.267 135.516 107.562 135.516 107.859C135.516 109.964 135.281 112.019 134.835 114.012L140.02 116.086C141.836 116.812 143.813 115.474 143.813 113.518V107.732C143.813 105.776 141.836 104.438 140.02 105.165L135.502 106.972ZM58.8699 86.6048C51.3861 92.2176 47.0156 99.7606 47.0156 107.859C47.0156 115.958 51.3861 123.501 58.8699 129.114C66.3545 134.727 76.8212 138.281 88.5 138.281C100.179 138.281 110.645 134.727 118.13 129.114C125.614 123.501 129.984 115.958 129.984 107.859C129.984 99.7606 125.614 92.2176 118.13 86.6048C110.645 80.9913 100.179 77.4375 88.5 77.4375C76.8212 77.4375 66.3545 80.9913 58.8699 86.6048ZM62.2266 137.702C65.3418 139.305 68.7175 140.628 72.2908 141.627L72.1121 142.074C71.6921 143.124 70.6751 143.812 69.5442 143.812H64.9922C63.4648 143.812 62.2266 142.574 62.2266 141.047V137.702ZM104.709 141.627L104.888 142.074C105.308 143.124 106.325 143.812 107.456 143.812H112.008C113.535 143.812 114.773 142.574 114.773 141.047V137.702C111.658 139.305 108.283 140.628 104.709 141.627Z" fill="black"/>
</svg>
