<svg width="186" height="186" viewBox="0 0 186 186" fill="none" xmlns="http://www.w3.org/2000/svg">
<path d="M83.8418 27.1735C89.6902 24.6671 96.3098 24.6671 102.158 27.1735L142.553 44.485C145.402 45.7062 147.25 48.5079 147.25 51.608V92.318C147.25 107.335 139.997 121.428 127.777 130.157L102.009 148.563C96.6196 152.412 89.3804 152.412 83.9912 148.563L58.2227 130.157C46.0026 121.428 38.75 107.335 38.75 92.318V51.608C38.7501 48.5079 40.5978 45.7062 43.4473 44.485L83.8418 27.1735ZM119.062 66.236C117.182 64.7321 114.465 64.9803 112.886 66.7614L112.736 66.9381L84.8779 101.762L72.9316 89.818C71.1743 88.0608 68.3257 88.0607 66.5684 89.818C64.811 91.5753 64.8111 94.4239 66.5684 96.1813L81.6729 111.287C83.7801 113.394 87.2517 113.202 89.1133 110.875L119.764 72.5612L119.904 72.3766C121.295 70.4448 120.941 67.7401 119.062 66.236Z" fill="#FFF066"/>
</svg>
